<svg xmlns="http://www.w3.org/2000/svg">
    <symbol id="setting" viewBox="0 0 14 14">
      <g>
        <path d="M13.1043 8.55473L12.215 7.7891C12.2571 7.52934 12.2788 7.2641 12.2788 6.99887C12.2788 6.73363 12.2571 6.4684 12.215 6.20863L13.1043 5.44301C13.1713 5.38519 13.2193 5.30817 13.2419 5.22221C13.2645 5.13624 13.2605 5.0454 13.2305 4.96176L13.2183 4.92621C12.9735 4.23719 12.6069 3.59845 12.1363 3.04086L12.1118 3.01215C12.0547 2.94454 11.9786 2.89595 11.8936 2.87276C11.8085 2.84958 11.7184 2.85289 11.6353 2.88227L10.5315 3.27738C10.1242 2.94106 9.66942 2.67582 9.17795 2.48988L8.9648 1.32777C8.94872 1.24033 8.90659 1.15989 8.84403 1.09713C8.78146 1.03437 8.70142 0.992262 8.61452 0.976407L8.57787 0.969571C7.87053 0.841055 7.12654 0.841055 6.41921 0.969571L6.38255 0.976407C6.29566 0.992262 6.21561 1.03437 6.15305 1.09713C6.09048 1.15989 6.04836 1.24033 6.03228 1.32777L5.81777 2.49535C5.33022 2.68133 4.8762 2.94642 4.4737 3.28012L3.36179 2.88227C3.27865 2.85266 3.18854 2.84922 3.10342 2.87242C3.0183 2.89562 2.94221 2.94436 2.88525 3.01215L2.86082 3.04086C2.39072 3.59884 2.0242 4.23747 1.77877 4.92621L1.76655 4.96176C1.70546 5.13266 1.75569 5.32406 1.89281 5.44301L2.79293 6.21684C2.75085 6.47387 2.73048 6.73637 2.73048 6.9975C2.73048 7.26 2.75085 7.5225 2.79293 7.77817L1.89281 8.55199C1.82574 8.60982 1.77773 8.68683 1.75518 8.7728C1.73263 8.85876 1.73659 8.9496 1.76655 9.03324L1.77877 9.06879C2.0245 9.75785 2.38835 10.3936 2.86082 10.9541L2.88525 10.9829C2.94235 11.0505 3.01844 11.0991 3.10351 11.1222C3.18858 11.1454 3.27863 11.1421 3.36179 11.1127L4.4737 10.7149C4.87828 11.0498 5.33038 11.3151 5.81777 11.4997L6.03228 12.6672C6.04836 12.7547 6.09048 12.8351 6.15305 12.8979C6.21561 12.9606 6.29566 13.0027 6.38255 13.0186L6.41921 13.0254C7.13304 13.1546 7.86403 13.1546 8.57787 13.0254L8.61452 13.0186C8.70142 13.0027 8.78146 12.9606 8.84403 12.8979C8.90659 12.8351 8.94872 12.7547 8.9648 12.6672L9.17795 11.5051C9.66922 11.3197 10.1266 11.0536 10.5315 10.7176L11.6353 11.1127C11.7184 11.1423 11.8085 11.1458 11.8937 11.1226C11.9788 11.0994 12.0549 11.0506 12.1118 10.9829L12.1363 10.9541C12.6087 10.3922 12.9726 9.75785 13.2183 9.06879L13.2305 9.03324C13.2916 8.86508 13.2414 8.67367 13.1043 8.55473ZM11.2511 6.36996C11.285 6.57641 11.3027 6.78832 11.3027 7.00024C11.3027 7.21215 11.285 7.42406 11.2511 7.63051L11.1615 8.17875L12.1756 9.05238C12.0219 9.40907 11.8278 9.74672 11.5973 10.0586L10.3374 9.60883L9.91108 9.96156C9.5866 10.2295 9.22547 10.4401 8.83446 10.5877L8.3172 10.7832L8.07418 12.1094C7.69074 12.1532 7.30362 12.1532 6.92018 12.1094L6.67716 10.7805L6.16397 10.5823C5.77704 10.4346 5.41726 10.2241 5.0955 9.95746L4.6692 9.60336L3.40116 10.0573C3.17036 9.74418 2.97757 9.40649 2.8228 9.05102L3.84782 8.16918L3.75958 7.62231C3.72699 7.41859 3.70934 7.20805 3.70934 7.00024C3.70934 6.79106 3.72564 6.58188 3.75958 6.37816L3.84782 5.83129L2.8228 4.94945C2.97622 4.59262 3.17036 4.25629 3.40116 3.9432L4.6692 4.39711L5.0955 4.04301C5.41726 3.77641 5.77704 3.56586 6.16397 3.4182L6.67852 3.2227L6.92154 1.89379C7.30304 1.85004 7.69268 1.85004 8.07554 1.89379L8.31856 3.21996L8.83582 3.41547C9.22547 3.56313 9.58796 3.77367 9.91244 4.04164L10.3387 4.39438L11.5986 3.94457C11.8294 4.25766 12.0222 4.59535 12.177 4.95082L11.1628 5.82445L11.2511 6.36996ZM7.4999 4.45727C6.18026 4.45727 5.11044 5.53461 5.11044 6.86352C5.11044 8.19242 6.18026 9.26977 7.4999 9.26977C8.81953 9.26977 9.88935 8.19242 9.88935 6.86352C9.88935 5.53461 8.81953 4.45727 7.4999 4.45727ZM8.57515 7.94633C8.43412 8.08876 8.26652 8.2017 8.08199 8.27866C7.89745 8.35562 7.69963 8.39508 7.4999 8.39477C7.09396 8.39477 6.71246 8.23481 6.42464 7.94633C6.2832 7.80431 6.17105 7.63553 6.09463 7.4497C6.0182 7.26387 5.97902 7.06465 5.97933 6.86352C5.97933 6.45473 6.13818 6.07055 6.42464 5.7807C6.71246 5.49086 7.09396 5.33227 7.4999 5.33227C7.90583 5.33227 8.28733 5.49086 8.57515 5.7807C8.71659 5.92272 8.82874 6.09151 8.90517 6.27734C8.98159 6.46317 9.02077 6.66238 9.02046 6.86352C9.02046 7.27231 8.86162 7.65649 8.57515 7.94633Z" fill="#8C8C8C"/>
      </g>
    </symbol>
    <symbol id="like-active" viewBox="0 0 16 16">
      <g>
        <path d="M4.5242 7.74846V14.436L4.52886 7.74846H4.5242ZM12.8749 6.36877H7.99667L8.14563 3.26877C8.15494 3.08283 8.0727 2.90783 7.91909 2.79221C7.82445 2.72189 7.70808 2.68596 7.59171 2.68752C7.28759 2.68908 7.01917 2.89689 6.93693 3.19221C6.36129 5.29221 5.92995 6.86721 5.64135 7.91877V13.3125H11.8384C11.9935 13.2425 12.1252 13.1289 12.2177 12.9853C12.3102 12.8417 12.3595 12.6743 12.3598 12.5031C12.3598 12.3516 12.3241 12.2078 12.2527 12.0766L12.037 11.6797L12.3768 11.3828C12.4725 11.2994 12.5491 11.1962 12.6016 11.0803C12.6541 10.9643 12.6812 10.8384 12.6809 10.711C12.6809 10.5594 12.6453 10.4156 12.5739 10.2844L12.3582 9.88752L12.698 9.59064C12.7937 9.50723 12.8703 9.40403 12.9228 9.28809C12.9753 9.17215 13.0023 9.04618 13.0021 8.91877C13.0021 8.76721 12.9664 8.62346 12.8951 8.49221L12.6778 8.09377L13.0176 7.79689C13.1133 7.71348 13.19 7.61028 13.2424 7.49434C13.2949 7.3784 13.322 7.25243 13.3218 7.12502C13.3218 6.82658 13.1511 6.53908 12.8749 6.36877Z" fill="#E6F7FF"/>
        <path d="M2.02612 8.25005V13.9375C2.02612 14.2141 2.248 14.4375 2.52263 14.4375H3.53117V7.75005H2.52263C2.248 7.75005 2.02612 7.97349 2.02612 8.25005ZM14.0339 8.33911C14.2946 7.99224 14.4389 7.56724 14.4389 7.12505C14.4389 6.42349 14.0494 5.75786 13.4226 5.39067C13.2612 5.29535 13.0775 5.24519 12.8904 5.24536H9.16812L9.26122 3.32505C9.28449 2.86099 9.12158 2.42036 8.8035 2.08442C8.64829 1.91868 8.46091 1.78683 8.25298 1.69705C8.04506 1.60728 7.82103 1.5615 7.5948 1.56255C6.78797 1.56255 6.07424 2.10942 5.86012 2.89224L4.52885 7.74849L4.52419 14.436H11.8493C11.9936 14.436 12.1317 14.4079 12.2605 14.3516C12.999 14.0344 13.4754 13.3079 13.4754 12.5016C13.4754 12.3047 13.4474 12.111 13.3916 11.9235C13.6522 11.5766 13.7965 11.1516 13.7965 10.7094C13.7965 10.5125 13.7686 10.3188 13.7128 10.1313C13.9734 9.78442 14.1177 9.35942 14.1177 8.91724C14.1177 8.72036 14.0898 8.52661 14.0339 8.33911ZM13.0176 7.79692L12.6778 8.0938L12.8951 8.49224C12.9661 8.62297 13.003 8.76976 13.0021 8.9188C13.0021 9.17661 12.892 9.42192 12.698 9.59067L12.3582 9.88755L12.5739 10.2844C12.6449 10.4152 12.6818 10.562 12.6809 10.711C12.6809 10.9688 12.5708 11.2141 12.3768 11.3829L12.037 11.6797L12.2527 12.0766C12.3238 12.2073 12.3606 12.3541 12.3598 12.5032C12.3598 12.8532 12.1549 13.1688 11.8384 13.3125H5.64134V7.9188C5.92994 6.8688 6.36129 5.2938 6.93693 3.19224C6.97715 3.04809 7.06271 2.92098 7.18077 2.82998C7.29884 2.73898 7.44303 2.689 7.5917 2.68755C7.70807 2.68599 7.82444 2.72192 7.91909 2.79224C8.0727 2.90786 8.15493 3.08286 8.14562 3.2688L7.99667 6.3688H12.8749C13.1511 6.53911 13.3217 6.82661 13.3217 7.12505C13.3217 7.38286 13.2116 7.62817 13.0176 7.79692Z" fill="#1890FF"/>
      </g>
    </symbol>
     <symbol id='like' viewBox='0 0 24 24'>
      <g>
        <path d="M21.5718 12.5094C21.9628 11.9891 22.1792 11.3516 22.1792 10.6883C22.1792 9.63596 21.595 8.63987 20.6548 8.0844C20.4127 7.94142 20.1371 7.86617 19.8565 7.86643H14.2754L14.415 4.98596C14.4476 4.28987 14.2032 3.62893 13.7284 3.12502C13.4954 2.87665 13.2143 2.67904 12.9025 2.5444C12.5907 2.40975 12.2547 2.34094 11.9154 2.34221C10.7052 2.34221 9.63456 3.16252 9.31338 4.33674L7.31415 11.6258H4.30483C3.89288 11.6258 3.56006 11.961 3.56006 12.3758V20.9071C3.56006 21.3219 3.89288 21.6571 4.30483 21.6571H18.2995C18.5136 21.6571 18.723 21.6149 18.9162 21.5305C20.0241 21.0547 20.7386 19.9649 20.7386 18.7555C20.7386 18.4602 20.6967 18.1696 20.6129 17.8883C21.0039 17.368 21.2203 16.7305 21.2203 16.0672C21.2203 15.7719 21.1784 15.4813 21.0947 15.2C21.4857 14.6797 21.7021 14.0422 21.7021 13.3789C21.6975 13.0836 21.6556 12.7906 21.5718 12.5094ZM5.23578 19.9696V13.3133H7.12097V19.9696H5.23578ZM20.0473 11.6961L19.5376 12.1414L19.8611 12.7367C19.9677 12.9328 20.023 13.153 20.0217 13.3766C20.0217 13.7633 19.8542 14.1313 19.5656 14.3844L19.0559 14.8297L19.3794 15.425C19.4859 15.6211 19.5412 15.8413 19.54 16.0649C19.54 16.4516 19.3724 16.8196 19.0838 17.0727L18.5741 17.518L18.8976 18.1133C19.0042 18.3094 19.0594 18.5296 19.0582 18.7531C19.0582 19.2781 18.751 19.7516 18.2762 19.9672H8.61051V13.2383L10.9263 4.78909C10.986 4.57252 11.1142 4.38147 11.2914 4.24486C11.4686 4.10825 11.6852 4.03354 11.9084 4.03205C12.0853 4.03205 12.2599 4.08362 12.3995 4.18909C12.6299 4.36252 12.7533 4.62502 12.7393 4.90393L12.5159 9.55393H19.8332C20.2475 9.8094 20.5035 10.2406 20.5035 10.6883C20.5035 11.075 20.3359 11.4406 20.0473 11.6961Z" fill="#595959"/>
      </g>
    </symbol>
    <symbol id="share" viewBox="0 0 24 24">
      <g>
        <path d="M17.727 15.5625C17.0637 15.5625 16.4516 15.7969 15.9722 16.1883L11.1498 12.675C11.2305 12.2287 11.2305 11.7713 11.1498 11.325L15.9722 7.81172C16.4516 8.20312 17.0637 8.4375 17.727 8.4375C19.2678 8.4375 20.5199 7.17656 20.5199 5.625C20.5199 4.07344 19.2678 2.8125 17.727 2.8125C16.1863 2.8125 14.9341 4.07344 14.9341 5.625C14.9341 5.89687 14.9714 6.15703 15.0435 6.40547L10.4632 9.74531C9.78362 8.83828 8.70371 8.25 7.48648 8.25C5.42906 8.25 3.76265 9.92812 3.76265 12C3.76265 14.0719 5.42906 15.75 7.48648 15.75C8.70371 15.75 9.78362 15.1617 10.4632 14.2547L15.0435 17.5945C14.9714 17.843 14.9341 18.1055 14.9341 18.375C14.9341 19.9266 16.1863 21.1875 17.727 21.1875C19.2678 21.1875 20.5199 19.9266 20.5199 18.375C20.5199 16.8234 19.2678 15.5625 17.727 15.5625ZM17.727 4.40625C18.395 4.40625 18.9373 4.95234 18.9373 5.625C18.9373 6.29766 18.395 6.84375 17.727 6.84375C17.0591 6.84375 16.5168 6.29766 16.5168 5.625C16.5168 4.95234 17.0591 4.40625 17.727 4.40625ZM7.48648 14.0625C6.35769 14.0625 5.43837 13.1367 5.43837 12C5.43837 10.8633 6.35769 9.9375 7.48648 9.9375C8.61527 9.9375 9.53459 10.8633 9.53459 12C9.53459 13.1367 8.61527 14.0625 7.48648 14.0625ZM17.727 19.5938C17.0591 19.5938 16.5168 19.0477 16.5168 18.375C16.5168 17.7023 17.0591 17.1562 17.727 17.1562C18.395 17.1562 18.9373 17.7023 18.9373 18.375C18.9373 19.0477 18.395 19.5938 17.727 19.5938Z" fill="#595959"/>
      </g>
    </symbol>
    <symbol id="chat" viewBox="0 0 22 22">
      <g>
        <path d="M9.87519 11C9.87519 11.2984 9.99372 11.5845 10.2047 11.7955C10.4157 12.0065 10.7018 12.125 11.0002 12.125C11.2986 12.125 11.5847 12.0065 11.7957 11.7955C12.0067 11.5845 12.1252 11.2984 12.1252 11C12.1252 10.7016 12.0067 10.4155 11.7957 10.2045C11.5847 9.99353 11.2986 9.875 11.0002 9.875C10.7018 9.875 10.4157 9.99353 10.2047 10.2045C9.99372 10.4155 9.87519 10.7016 9.87519 11V11ZM14.5627 11C14.5627 11.2984 14.6812 11.5845 14.8922 11.7955C15.1032 12.0065 15.3893 12.125 15.6877 12.125C15.9861 12.125 16.2722 12.0065 16.4832 11.7955C16.6942 11.5845 16.8127 11.2984 16.8127 11C16.8127 10.7016 16.6942 10.4155 16.4832 10.2045C16.2722 9.99353 15.9861 9.875 15.6877 9.875C15.3893 9.875 15.1032 9.99353 14.8922 10.2045C14.6812 10.4155 14.5627 10.7016 14.5627 11ZM5.18769 11C5.18769 11.2984 5.30622 11.5845 5.5172 11.7955C5.72818 12.0065 6.01433 12.125 6.31269 12.125C6.61106 12.125 6.89721 12.0065 7.10819 11.7955C7.31917 11.5845 7.43769 11.2984 7.43769 11C7.43769 10.7016 7.31917 10.4155 7.10819 10.2045C6.89721 9.99353 6.61106 9.875 6.31269 9.875C6.01433 9.875 5.72818 9.99353 5.5172 10.2045C5.30622 10.4155 5.18769 10.7016 5.18769 11V11ZM20.6846 6.93125C20.1549 5.67266 19.3955 4.54297 18.4275 3.57266C17.4663 2.60796 16.3253 1.84114 15.0689 1.31563C13.7799 0.774219 12.4111 0.5 11.0002 0.5H10.9533C9.53301 0.507031 8.15723 0.788281 6.86348 1.34141C5.61791 1.87232 4.48753 2.64049 3.53535 3.60312C2.57676 4.57109 1.82441 5.69609 1.3041 6.95C0.765038 8.24844 0.493163 9.6289 0.500194 11.0492C0.508147 12.6769 0.893222 14.2806 1.62519 15.7344V19.2969C1.62519 19.5828 1.73878 19.857 1.94097 20.0592C2.14316 20.2614 2.41738 20.375 2.70332 20.375H6.26816C7.72198 21.107 9.32565 21.492 10.9533 21.5H11.0025C12.4064 21.5 13.7682 21.2281 15.0502 20.6961C16.3002 20.1768 17.437 19.419 18.3971 18.4648C19.365 17.5062 20.1268 16.3859 20.6588 15.1367C21.2119 13.843 21.4932 12.4672 21.5002 11.0469C21.5072 9.61953 21.2307 8.23437 20.6846 6.93125V6.93125ZM17.1432 17.1969C15.5002 18.8234 13.3205 19.7187 11.0002 19.7187H10.9604C9.54707 19.7117 8.14316 19.3602 6.90332 18.6992L6.70644 18.5937H3.40644V15.2937L3.30098 15.0969C2.64004 13.857 2.28848 12.4531 2.28144 11.0398C2.27207 8.70312 3.16504 6.50937 4.80332 4.85703C6.43926 3.20469 8.62598 2.29062 10.9627 2.28125H11.0025C12.1744 2.28125 13.3111 2.50859 14.3822 2.95859C15.4275 3.39687 16.365 4.02734 17.1713 4.83359C17.9752 5.6375 18.608 6.57734 19.0463 7.62266C19.501 8.70547 19.7283 9.85391 19.7236 11.0398C19.7096 13.3742 18.7932 15.5609 17.1432 17.1969V17.1969Z" fill="#595959"/>
      </g>
    </symbol>
    <symbol id="clock-circle" viewBox="0 0 16 16">
      <g>
        <path d="M7.98384 1C4.14519 1 1.03268 4.13438 1.03268 8C1.03268 11.8656 4.14519 15 7.98384 15C11.8225 15 14.935 11.8656 14.935 8C14.935 4.13438 11.8225 1 7.98384 1ZM7.98384 13.8125C4.79686 13.8125 2.2119 11.2094 2.2119 8C2.2119 4.79063 4.79686 2.1875 7.98384 2.1875C11.1708 2.1875 13.7558 4.79063 13.7558 8C13.7558 11.2094 11.1708 13.8125 7.98384 13.8125Z" />
        <path d="M10.6945 9.97811L8.48191 8.36718V4.5C8.48191 4.43125 8.42605 4.375 8.35778 4.375H7.61146C7.54319 4.375 7.48734 4.43125 7.48734 4.5V8.80311C7.48734 8.84374 7.50595 8.88124 7.53854 8.90467L10.1049 10.789C10.1607 10.8297 10.2383 10.8172 10.2787 10.7625L10.7224 10.1531C10.7627 10.0953 10.7503 10.0172 10.6945 9.97811Z" />
      </g>
    </symbol>
</svg>
